<?xml version="1.0" encoding="UTF-8" standalone="no"?><svg xmlns="http://www.w3.org/2000/svg" xmlns:xlink="http://www.w3.org/1999/xlink" contentScriptType="application/ecmascript" contentStyleType="text/css" height="240px" preserveAspectRatio="none" style="width:156px;height:240px;background:#FFFFFF;" version="1.1" viewBox="0 0 156 240" width="156px" zoomAndPan="magnify"><defs><filter height="300%" id="f12dhbc2pfml81" width="300%" x="-1" y="-1"><feGaussianBlur result="blurOut" stdDeviation="2.0"/><feColorMatrix in="blurOut" result="blurOut2" type="matrix" values="0 0 0 0 0 0 0 0 0 0 0 0 0 0 0 0 0 0 .4 0"/><feOffset dx="4.0" dy="4.0" in="blurOut2" result="blurOut3"/><feBlend in="SourceGraphic" in2="blurOut3" mode="normal"/></filter></defs><g><!--MD5=[c3f280b58e8dd0683e81b8ec31306a35]
class Author--><rect codeLine="6" fill="#FFFFFF" filter="url(#f12dhbc2pfml81)" height="86.4141" id="Author" style="stroke:#6495ED;stroke-width:1.5;" width="127" x="11" y="7"/><ellipse cx="49.85" cy="23" fill="#ADD1B2" rx="11" ry="11" style="stroke:#6495ED;stroke-width:1.0;"/><path d="M52.8188,28.6406 Q52.2406,28.9375 51.6,29.0781 Q50.9594,29.2344 50.2563,29.2344 Q47.7563,29.2344 46.4281,27.5938 Q45.1156,25.9375 45.1156,22.8125 Q45.1156,19.6875 46.4281,18.0313 Q47.7563,16.375 50.2563,16.375 Q50.9594,16.375 51.6,16.5313 Q52.2563,16.6875 52.8188,16.9844 L52.8188,19.7031 Q52.1938,19.125 51.6,18.8594 Q51.0063,18.5781 50.3813,18.5781 Q49.0375,18.5781 48.35,19.6563 Q47.6625,20.7188 47.6625,22.8125 Q47.6625,24.9063 48.35,25.9844 Q49.0375,27.0469 50.3813,27.0469 Q51.0063,27.0469 51.6,26.7813 Q52.1938,26.5 52.8188,25.9219 L52.8188,28.6406 Z " fill="#000000"/><text fill="#000000" font-family="sans-serif" font-size="12" lengthAdjust="spacing" textLength="42" x="69.15" y="27.1543">Author</text><line style="stroke:#6495ED;stroke-width:1.5;" x1="12" x2="137" y1="39" y2="39"/><ellipse cx="22" cy="50" rx="3" ry="3" style="stroke:#038048;stroke-width:1.0;fill:none;"/><text fill="#000000" font-family="sans-serif" font-size="11" lengthAdjust="spacing" textLength="98" x="31" y="53.2104">firstName: String</text><ellipse cx="22" cy="62.8047" rx="3" ry="3" style="stroke:#038048;stroke-width:1.0;fill:none;"/><text fill="#000000" font-family="sans-serif" font-size="11" lengthAdjust="spacing" textLength="96" x="31" y="66.0151">lastName: String</text><ellipse cx="22" cy="75.6094" rx="3" ry="3" style="stroke:#038048;stroke-width:1.0;fill:none;"/><text fill="#000000" font-family="sans-serif" font-size="11" lengthAdjust="spacing" textLength="101" x="31" y="78.8198">bookList: &lt;Book&gt;</text><line style="stroke:#6495ED;stroke-width:1.5;" x1="12" x2="137" y1="85.4141" y2="85.4141"/><!--MD5=[84e3a5e42879fb3231104d3c8e592439]
class Book--><rect codeLine="12" fill="#FFFFFF" filter="url(#f12dhbc2pfml81)" height="73.6094" id="Book" style="stroke:#6495ED;stroke-width:1.5;" width="135" x="7" y="153"/><ellipse cx="54.75" cy="169" fill="#ADD1B2" rx="11" ry="11" style="stroke:#6495ED;stroke-width:1.0;"/><path d="M57.7188,174.6406 Q57.1406,174.9375 56.5,175.0781 Q55.8594,175.2344 55.1563,175.2344 Q52.6563,175.2344 51.3281,173.5938 Q50.0156,171.9375 50.0156,168.8125 Q50.0156,165.6875 51.3281,164.0313 Q52.6563,162.375 55.1563,162.375 Q55.8594,162.375 56.5,162.5313 Q57.1563,162.6875 57.7188,162.9844 L57.7188,165.7031 Q57.0938,165.125 56.5,164.8594 Q55.9063,164.5781 55.2813,164.5781 Q53.9375,164.5781 53.25,165.6563 Q52.5625,166.7188 52.5625,168.8125 Q52.5625,170.9063 53.25,171.9844 Q53.9375,173.0469 55.2813,173.0469 Q55.9063,173.0469 56.5,172.7813 Q57.0938,172.5 57.7188,171.9219 L57.7188,174.6406 Z " fill="#000000"/><text fill="#000000" font-family="sans-serif" font-size="12" lengthAdjust="spacing" textLength="31" x="75.25" y="173.1543">Book</text><line style="stroke:#6495ED;stroke-width:1.5;" x1="8" x2="141" y1="185" y2="185"/><ellipse cx="18" cy="196" rx="3" ry="3" style="stroke:#038048;stroke-width:1.0;fill:none;"/><text fill="#000000" font-family="sans-serif" font-size="11" lengthAdjust="spacing" textLength="67" x="27" y="199.2104">title : String</text><ellipse cx="18" cy="208.8047" rx="3" ry="3" style="stroke:#038048;stroke-width:1.0;fill:none;"/><text fill="#000000" font-family="sans-serif" font-size="11" lengthAdjust="spacing" textLength="109" x="27" y="212.0151">publicationYear: Int</text><line style="stroke:#6495ED;stroke-width:1.5;" x1="8" x2="141" y1="218.6094" y2="218.6094"/><!--MD5=[89e841161ed885f16c9661f1b533052d]
link Author to Book--><path codeLine="4" d="M74.5,93.15 C74.5,107.72 74.5,124.17 74.5,139.29 " fill="none" id="Author-to-Book" style="stroke:#556B2F;stroke-width:1.0;"/><polygon fill="#556B2F" points="74.5,152.7,78.5,146.7,74.5,140.7,70.5,146.7,74.5,152.7" style="stroke:#556B2F;stroke-width:1.0;"/><text fill="#000000" font-family="sans-serif" font-size="13" lengthAdjust="spacing" textLength="7" x="66.8766" y="141.8335">*</text><!--MD5=[e2f90dfddb218103ecbcc14a4efd0dcc]
@startuml

!include SkinParamClass.iuml

Author - -* "*" Book

class Author {
  + firstName: String
  + lastName: String
  + bookList: <Book>
}

class Book {
  + title : String
  + publicationYear: Int
}


@enduml

@startuml

skinparam object {
 ArrowColor DarkOliveGreen
 BackgroundColor White
 BorderColor CornflowerBlue
}

skinparam class {
 ArrowColor DarkOliveGreen
 BackgroundColor White
 BorderColor CornflowerBlue
}

skinparam nodesep 90

Author - -* "*" Book

class Author {
  + firstName: String
  + lastName: String
  + bookList: <Book>
}

class Book {
  + title : String
  + publicationYear: Int
}


@enduml

PlantUML version 1.2021.16(Wed Dec 08 19:25:22 IST 2021)
(GPL source distribution)
Java Runtime: OpenJDK Runtime Environment
JVM: OpenJDK 64-Bit Server VM
Default Encoding: UTF-8
Language: en
Country: null
--></g></svg>