<?xml version="1.0" encoding="UTF-8" standalone="no"?><svg xmlns="http://www.w3.org/2000/svg" xmlns:xlink="http://www.w3.org/1999/xlink" contentScriptType="application/ecmascript" contentStyleType="text/css" height="609px" preserveAspectRatio="none" style="width:995px;height:609px;background:#FFFFFF;" version="1.1" viewBox="0 0 995 609" width="995px" zoomAndPan="magnify"><defs><filter height="300%" id="ffh2ctk7d81nn" width="300%" x="-1" y="-1"><feGaussianBlur result="blurOut" stdDeviation="2.0"/><feColorMatrix in="blurOut" result="blurOut2" type="matrix" values="0 0 0 0 0 0 0 0 0 0 0 0 0 0 0 0 0 0 .4 0"/><feOffset dx="4.0" dy="4.0" in="blurOut2" result="blurOut3"/><feBlend in="SourceGraphic" in2="blurOut3" mode="normal"/></filter></defs><g><!--MD5=[1681db427d861294dc4bf59cd2c200d7]
class Library--><rect fill="#FFFFFF" filter="url(#ffh2ctk7d81nn)" height="48" id="Library" style="stroke:#6495ED;stroke-width:1.5;" width="73" x="610.5" y="7"/><ellipse cx="625.5" cy="23" fill="#ADD1B2" rx="11" ry="11" style="stroke:#6495ED;stroke-width:1.0;"/><path d="M628.4688,28.6406 Q627.8906,28.9375 627.25,29.0781 Q626.6094,29.2344 625.9063,29.2344 Q623.4063,29.2344 622.0781,27.5938 Q620.7656,25.9375 620.7656,22.8125 Q620.7656,19.6875 622.0781,18.0313 Q623.4063,16.375 625.9063,16.375 Q626.6094,16.375 627.25,16.5313 Q627.9063,16.6875 628.4688,16.9844 L628.4688,19.7031 Q627.8438,19.125 627.25,18.8594 Q626.6563,18.5781 626.0313,18.5781 Q624.6875,18.5781 624,19.6563 Q623.3125,20.7188 623.3125,22.8125 Q623.3125,24.9063 624,25.9844 Q624.6875,27.0469 626.0313,27.0469 Q626.6563,27.0469 627.25,26.7813 Q627.8438,26.5 628.4688,25.9219 L628.4688,28.6406 Z " fill="#000000"/><text fill="#000000" font-family="sans-serif" font-size="12" lengthAdjust="spacing" textLength="41" x="639.5" y="27.1543">Library</text><line style="stroke:#6495ED;stroke-width:1.5;" x1="611.5" x2="682.5" y1="39" y2="39"/><line style="stroke:#6495ED;stroke-width:1.5;" x1="611.5" x2="682.5" y1="47" y2="47"/><!--MD5=[b582e6ce3c86f1934c1c2f1f310142ca]
class Catalog--><rect fill="#FFFFFF" filter="url(#ffh2ctk7d81nn)" height="48" id="Catalog" style="stroke:#6495ED;stroke-width:1.5;" width="80" x="431" y="115"/><ellipse cx="446" cy="131" fill="#ADD1B2" rx="11" ry="11" style="stroke:#6495ED;stroke-width:1.0;"/><path d="M448.9688,136.6406 Q448.3906,136.9375 447.75,137.0781 Q447.1094,137.2344 446.4063,137.2344 Q443.9063,137.2344 442.5781,135.5938 Q441.2656,133.9375 441.2656,130.8125 Q441.2656,127.6875 442.5781,126.0313 Q443.9063,124.375 446.4063,124.375 Q447.1094,124.375 447.75,124.5313 Q448.4063,124.6875 448.9688,124.9844 L448.9688,127.7031 Q448.3438,127.125 447.75,126.8594 Q447.1563,126.5781 446.5313,126.5781 Q445.1875,126.5781 444.5,127.6563 Q443.8125,128.7188 443.8125,130.8125 Q443.8125,132.9063 444.5,133.9844 Q445.1875,135.0469 446.5313,135.0469 Q447.1563,135.0469 447.75,134.7813 Q448.3438,134.5 448.9688,133.9219 L448.9688,136.6406 Z " fill="#000000"/><text fill="#000000" font-family="sans-serif" font-size="12" lengthAdjust="spacing" textLength="48" x="460" y="135.1543">Catalog</text><line style="stroke:#6495ED;stroke-width:1.5;" x1="432" x2="510" y1="147" y2="147"/><line style="stroke:#6495ED;stroke-width:1.5;" x1="432" x2="510" y1="155" y2="155"/><!--MD5=[189f5ea1ad3e2a40d497b4be23a6c96d]
class Librarian--><rect fill="#FFFFFF" filter="url(#ffh2ctk7d81nn)" height="48" id="Librarian" style="stroke:#6495ED;stroke-width:1.5;" width="86" x="560" y="223"/><ellipse cx="575" cy="239" fill="#ADD1B2" rx="11" ry="11" style="stroke:#6495ED;stroke-width:1.0;"/><path d="M577.9688,244.6406 Q577.3906,244.9375 576.75,245.0781 Q576.1094,245.2344 575.4063,245.2344 Q572.9063,245.2344 571.5781,243.5938 Q570.2656,241.9375 570.2656,238.8125 Q570.2656,235.6875 571.5781,234.0313 Q572.9063,232.375 575.4063,232.375 Q576.1094,232.375 576.75,232.5313 Q577.4063,232.6875 577.9688,232.9844 L577.9688,235.7031 Q577.3438,235.125 576.75,234.8594 Q576.1563,234.5781 575.5313,234.5781 Q574.1875,234.5781 573.5,235.6563 Q572.8125,236.7188 572.8125,238.8125 Q572.8125,240.9063 573.5,241.9844 Q574.1875,243.0469 575.5313,243.0469 Q576.1563,243.0469 576.75,242.7813 Q577.3438,242.5 577.9688,241.9219 L577.9688,244.6406 Z " fill="#000000"/><text fill="#000000" font-family="sans-serif" font-size="12" lengthAdjust="spacing" textLength="54" x="589" y="243.1543">Librarian</text><line style="stroke:#6495ED;stroke-width:1.5;" x1="561" x2="645" y1="255" y2="255"/><line style="stroke:#6495ED;stroke-width:1.5;" x1="561" x2="645" y1="263" y2="263"/><!--MD5=[f58fd777f29c17413488bea9e7cfcca3]
class Member--><rect fill="#FFFFFF" filter="url(#ffh2ctk7d81nn)" height="48" id="Member" style="stroke:#6495ED;stroke-width:1.5;" width="82" x="899" y="331"/><ellipse cx="914" cy="347" fill="#ADD1B2" rx="11" ry="11" style="stroke:#6495ED;stroke-width:1.0;"/><path d="M916.9688,352.6406 Q916.3906,352.9375 915.75,353.0781 Q915.1094,353.2344 914.4063,353.2344 Q911.9063,353.2344 910.5781,351.5938 Q909.2656,349.9375 909.2656,346.8125 Q909.2656,343.6875 910.5781,342.0313 Q911.9063,340.375 914.4063,340.375 Q915.1094,340.375 915.75,340.5313 Q916.4063,340.6875 916.9688,340.9844 L916.9688,343.7031 Q916.3438,343.125 915.75,342.8594 Q915.1563,342.5781 914.5313,342.5781 Q913.1875,342.5781 912.5,343.6563 Q911.8125,344.7188 911.8125,346.8125 Q911.8125,348.9063 912.5,349.9844 Q913.1875,351.0469 914.5313,351.0469 Q915.1563,351.0469 915.75,350.7813 Q916.3438,350.5 916.9688,349.9219 L916.9688,352.6406 Z " fill="#000000"/><text fill="#000000" font-family="sans-serif" font-size="12" lengthAdjust="spacing" textLength="50" x="928" y="351.1543">Member</text><line style="stroke:#6495ED;stroke-width:1.5;" x1="900" x2="980" y1="363" y2="363"/><line style="stroke:#6495ED;stroke-width:1.5;" x1="900" x2="980" y1="371" y2="371"/><!--MD5=[84e3a5e42879fb3231104d3c8e592439]
class Book--><rect fill="#FFFFFF" filter="url(#ffh2ctk7d81nn)" height="48" id="Book" style="stroke:#6495ED;stroke-width:1.5;" width="63" x="185.5" y="223"/><ellipse cx="200.5" cy="239" fill="#ADD1B2" rx="11" ry="11" style="stroke:#6495ED;stroke-width:1.0;"/><path d="M203.4688,244.6406 Q202.8906,244.9375 202.25,245.0781 Q201.6094,245.2344 200.9063,245.2344 Q198.4063,245.2344 197.0781,243.5938 Q195.7656,241.9375 195.7656,238.8125 Q195.7656,235.6875 197.0781,234.0313 Q198.4063,232.375 200.9063,232.375 Q201.6094,232.375 202.25,232.5313 Q202.9063,232.6875 203.4688,232.9844 L203.4688,235.7031 Q202.8438,235.125 202.25,234.8594 Q201.6563,234.5781 201.0313,234.5781 Q199.6875,234.5781 199,235.6563 Q198.3125,236.7188 198.3125,238.8125 Q198.3125,240.9063 199,241.9844 Q199.6875,243.0469 201.0313,243.0469 Q201.6563,243.0469 202.25,242.7813 Q202.8438,242.5 203.4688,241.9219 L203.4688,244.6406 Z " fill="#000000"/><text fill="#000000" font-family="sans-serif" font-size="12" lengthAdjust="spacing" textLength="31" x="214.5" y="243.1543">Book</text><line style="stroke:#6495ED;stroke-width:1.5;" x1="186.5" x2="247.5" y1="255" y2="255"/><line style="stroke:#6495ED;stroke-width:1.5;" x1="186.5" x2="247.5" y1="263" y2="263"/><!--MD5=[99878402f68a39d6f1ed06873c860315]
class BookItem--><rect fill="#FFFFFF" filter="url(#ffh2ctk7d81nn)" height="48" id="BookItem" style="stroke:#6495ED;stroke-width:1.5;" width="90" x="355" y="439"/><ellipse cx="370" cy="455" fill="#ADD1B2" rx="11" ry="11" style="stroke:#6495ED;stroke-width:1.0;"/><path d="M372.9688,460.6406 Q372.3906,460.9375 371.75,461.0781 Q371.1094,461.2344 370.4063,461.2344 Q367.9063,461.2344 366.5781,459.5938 Q365.2656,457.9375 365.2656,454.8125 Q365.2656,451.6875 366.5781,450.0313 Q367.9063,448.375 370.4063,448.375 Q371.1094,448.375 371.75,448.5313 Q372.4063,448.6875 372.9688,448.9844 L372.9688,451.7031 Q372.3438,451.125 371.75,450.8594 Q371.1563,450.5781 370.5313,450.5781 Q369.1875,450.5781 368.5,451.6563 Q367.8125,452.7188 367.8125,454.8125 Q367.8125,456.9063 368.5,457.9844 Q369.1875,459.0469 370.5313,459.0469 Q371.1563,459.0469 371.75,458.7813 Q372.3438,458.5 372.9688,457.9219 L372.9688,460.6406 Z " fill="#000000"/><text fill="#000000" font-family="sans-serif" font-size="12" lengthAdjust="spacing" textLength="58" x="384" y="459.1543">BookItem</text><line style="stroke:#6495ED;stroke-width:1.5;" x1="356" x2="444" y1="471" y2="471"/><line style="stroke:#6495ED;stroke-width:1.5;" x1="356" x2="444" y1="479" y2="479"/><!--MD5=[c3f280b58e8dd0683e81b8ec31306a35]
class Author--><rect fill="#FFFFFF" filter="url(#ffh2ctk7d81nn)" height="48" id="Author" style="stroke:#6495ED;stroke-width:1.5;" width="74" x="7" y="331"/><ellipse cx="22" cy="347" fill="#ADD1B2" rx="11" ry="11" style="stroke:#6495ED;stroke-width:1.0;"/><path d="M24.9688,352.6406 Q24.3906,352.9375 23.75,353.0781 Q23.1094,353.2344 22.4063,353.2344 Q19.9063,353.2344 18.5781,351.5938 Q17.2656,349.9375 17.2656,346.8125 Q17.2656,343.6875 18.5781,342.0313 Q19.9063,340.375 22.4063,340.375 Q23.1094,340.375 23.75,340.5313 Q24.4063,340.6875 24.9688,340.9844 L24.9688,343.7031 Q24.3438,343.125 23.75,342.8594 Q23.1563,342.5781 22.5313,342.5781 Q21.1875,342.5781 20.5,343.6563 Q19.8125,344.7188 19.8125,346.8125 Q19.8125,348.9063 20.5,349.9844 Q21.1875,351.0469 22.5313,351.0469 Q23.1563,351.0469 23.75,350.7813 Q24.3438,350.5 24.9688,349.9219 L24.9688,352.6406 Z " fill="#000000"/><text fill="#000000" font-family="sans-serif" font-size="12" lengthAdjust="spacing" textLength="42" x="36" y="351.1543">Author</text><line style="stroke:#6495ED;stroke-width:1.5;" x1="8" x2="80" y1="363" y2="363"/><line style="stroke:#6495ED;stroke-width:1.5;" x1="8" x2="80" y1="371" y2="371"/><!--MD5=[0b3f98415c25b5154844c5113d9d0aac]
class BookLending--><rect fill="#FFFFFF" filter="url(#ffh2ctk7d81nn)" height="48" id="BookLending" style="stroke:#6495ED;stroke-width:1.5;" width="112" x="525" y="547"/><ellipse cx="540" cy="563" fill="#ADD1B2" rx="11" ry="11" style="stroke:#6495ED;stroke-width:1.0;"/><path d="M542.9688,568.6406 Q542.3906,568.9375 541.75,569.0781 Q541.1094,569.2344 540.4063,569.2344 Q537.9063,569.2344 536.5781,567.5938 Q535.2656,565.9375 535.2656,562.8125 Q535.2656,559.6875 536.5781,558.0313 Q537.9063,556.375 540.4063,556.375 Q541.1094,556.375 541.75,556.5313 Q542.4063,556.6875 542.9688,556.9844 L542.9688,559.7031 Q542.3438,559.125 541.75,558.8594 Q541.1563,558.5781 540.5313,558.5781 Q539.1875,558.5781 538.5,559.6563 Q537.8125,560.7188 537.8125,562.8125 Q537.8125,564.9063 538.5,565.9844 Q539.1875,567.0469 540.5313,567.0469 Q541.1563,567.0469 541.75,566.7813 Q542.3438,566.5 542.9688,565.9219 L542.9688,568.6406 Z " fill="#000000"/><text fill="#000000" font-family="sans-serif" font-size="12" lengthAdjust="spacing" textLength="80" x="554" y="567.1543">BookLending</text><line style="stroke:#6495ED;stroke-width:1.5;" x1="526" x2="636" y1="579" y2="579"/><line style="stroke:#6495ED;stroke-width:1.5;" x1="526" x2="636" y1="587" y2="587"/><!--MD5=[3fd616f346a44cd59a91eb10b19e157c]
class User--><rect fill="#FFFFFF" filter="url(#ffh2ctk7d81nn)" height="48" id="User" style="stroke:#6495ED;stroke-width:1.5;" width="61" x="734.5" y="439"/><ellipse cx="749.5" cy="455" fill="#ADD1B2" rx="11" ry="11" style="stroke:#6495ED;stroke-width:1.0;"/><path d="M752.4688,460.6406 Q751.8906,460.9375 751.25,461.0781 Q750.6094,461.2344 749.9063,461.2344 Q747.4063,461.2344 746.0781,459.5938 Q744.7656,457.9375 744.7656,454.8125 Q744.7656,451.6875 746.0781,450.0313 Q747.4063,448.375 749.9063,448.375 Q750.6094,448.375 751.25,448.5313 Q751.9063,448.6875 752.4688,448.9844 L752.4688,451.7031 Q751.8438,451.125 751.25,450.8594 Q750.6563,450.5781 750.0313,450.5781 Q748.6875,450.5781 748,451.6563 Q747.3125,452.7188 747.3125,454.8125 Q747.3125,456.9063 748,457.9844 Q748.6875,459.0469 750.0313,459.0469 Q750.6563,459.0469 751.25,458.7813 Q751.8438,458.5 752.4688,457.9219 L752.4688,460.6406 Z " fill="#000000"/><text fill="#000000" font-family="sans-serif" font-size="12" lengthAdjust="spacing" textLength="29" x="763.5" y="459.1543">User</text><line style="stroke:#6495ED;stroke-width:1.5;" x1="735.5" x2="794.5" y1="471" y2="471"/><line style="stroke:#6495ED;stroke-width:1.5;" x1="735.5" x2="794.5" y1="479" y2="479"/><!--MD5=[ad34ed250eea131b1e76c40d7aab2cb7]
reverse link Library to Catalog--><path codeLine="3" d="M598.9,60.97 C570.74,77.93 535.66,99.06 509.37,114.89 " fill="none" id="Library-backto-Catalog" style="stroke:#556B2F;stroke-width:1.0;"/><polygon fill="#556B2F" points="610.1,54.22,602.8964,53.8906,599.8217,60.4133,607.0253,60.7427,610.1,54.22" style="stroke:#556B2F;stroke-width:1.0;"/><!--MD5=[dd714e4f57929769b4771ecb78735759]
reverse link Library to Librarian--><path codeLine="4" d="M639.55,68.26 C630.48,112.36 615.44,185.51 607.79,222.72 " fill="none" id="Library-backto-Librarian" style="stroke:#556B2F;stroke-width:1.0;"/><polygon fill="#556B2F" points="642.21,55.31,637.0858,60.3837,639.7983,67.0652,644.9226,61.9915,642.21,55.31" style="stroke:#556B2F;stroke-width:1.0;"/><text fill="#000000" font-family="sans-serif" font-size="13" lengthAdjust="spacing" textLength="7" x="601.1044" y="212.0567">*</text><!--MD5=[df800099061e4cb2c499a9444bff5aa4]
reverse link Library to Member--><path codeLine="5" d="M676.95,64.91 C736.25,130.09 867.32,274.13 918.73,330.62 " fill="none" id="Library-backto-Member" style="stroke:#556B2F;stroke-width:1.0;"/><polygon fill="#556B2F" points="668.07,55.16,669.1473,62.2902,676.1434,64.0381,675.0661,56.9079,668.07,55.16" style="stroke:#556B2F;stroke-width:1.0;"/><text fill="#000000" font-family="sans-serif" font-size="13" lengthAdjust="spacing" textLength="7" x="905.6923" y="319.9323">*</text><!--MD5=[3e3e8b1d9cb9f918dc52134aab1fbbd0]
link Catalog to Librarian--><path codeLine="7" d="M499.64,163 C520.34,179.62 548.35,202.12 569.99,219.5 " fill="none" id="Catalog-to-Librarian" style="stroke:#556B2F;stroke-width:1.0;stroke-dasharray:7.0,7.0;"/><polygon fill="#556B2F" points="573.96,222.68,569.4622,213.9182,570.0668,219.5426,564.4424,220.1473,573.96,222.68" style="stroke:#556B2F;stroke-width:1.0;"/><!--MD5=[739b98e45aca09f5b03b35ac002ef907]
reverse link Catalog to Book--><path codeLine="8" d="M418.64,161.85 C367.45,183.21 291.19,215.04 248.63,232.8 " fill="none" id="Catalog-backto-Book" style="stroke:#556B2F;stroke-width:1.0;"/><polygon fill="#556B2F" points="430.75,156.8,423.6717,155.4226,419.6778,161.4266,426.7561,162.8041,430.75,156.8" style="stroke:#556B2F;stroke-width:1.0;"/><text fill="#000000" font-family="sans-serif" font-size="13" lengthAdjust="spacing" textLength="7" x="256.3147" y="225.1345">*</text><!--MD5=[465641d822bfeba45c18d0b6d8652244]
reverse link Book to BookItem--><path codeLine="10" d="M245.6,281.44 C283,325.18 347.59,400.71 380.09,438.72 " fill="none" id="Book-backto-BookItem" style="stroke:#556B2F;stroke-width:1.0;"/><polygon fill="#556B2F" points="236.93,271.31,237.7909,278.4695,244.7308,280.4285,243.8699,273.269,236.93,271.31" style="stroke:#556B2F;stroke-width:1.0;"/><text fill="#000000" font-family="sans-serif" font-size="13" lengthAdjust="spacing" textLength="7" x="367.3838" y="428.0567">*</text><!--MD5=[708ece48ef120737d1cb93104a627dff]
link Book to Author--><path codeLine="11" d="M175.0352,273.7049 C175.0352,273.7049 91.4748,324.9151 91.4748,324.9151 " fill="none" id="Book-Author" style="stroke:#556B2F;stroke-width:1.0;"/><polygon fill="#FFFFFF" points="81.24,331.18,88.4457,331.4592,91.4748,324.9151,84.2691,324.636,81.24,331.18" style="stroke:#556B2F;stroke-width:1.0;"/><polygon fill="#FFFFFF" points="185.27,267.44,178.0643,267.1608,175.0352,273.7049,182.2409,273.984,185.27,267.44" style="stroke:#556B2F;stroke-width:1.0;"/><text fill="#000000" font-family="sans-serif" font-size="13" lengthAdjust="spacing" textLength="7" x="170.5634" y="267.352">*</text><text fill="#000000" font-family="sans-serif" font-size="13" lengthAdjust="spacing" textLength="7" x="89.0061" y="322.2892">*</text><!--MD5=[99542b546b70925d14d3c102fe313220]
reverse link BookItem to BookLending--><path codeLine="13" d="M450.73,493.71 C479.45,510.53 514.85,531.26 541.49,546.86 " fill="none" id="BookItem-backto-BookLending" style="stroke:#556B2F;stroke-width:1.0;"/><polygon fill="#556B2F" points="439.27,487,442.428,493.4828,449.6267,493.0612,446.4688,486.5784,439.27,487" style="stroke:#556B2F;stroke-width:1.0;"/><!--MD5=[678b0b523e79cc18d6a39ddec7dade71]
link Member to User--><path codeLine="15" d="M902.03,379 C875.89,394.83 840.95,415.99 812.9,432.99 " fill="none" id="Member-to-User" style="stroke:#556B2F;stroke-width:1.0;"/><polygon fill="none" points="816.36,439.08,795.62,443.45,809.1,427.1,816.36,439.08" style="stroke:#556B2F;stroke-width:1.0;"/><!--MD5=[34aa3fc2c759b5c1b6ce138accc17b0d]
reverse link Member to BookLending--><path codeLine="16" d="M921.66,390.59 C904.31,420.18 875.65,461.85 840,487 C778.37,530.49 692.8,552.02 637.17,562.07 " fill="none" id="Member-backto-BookLending" style="stroke:#556B2F;stroke-width:1.0;"/><polygon fill="#556B2F" points="928.17,379.13,921.7264,382.3672,922.2362,389.5603,928.6799,386.3231,928.17,379.13" style="stroke:#556B2F;stroke-width:1.0;"/><text fill="#000000" font-family="sans-serif" font-size="13" lengthAdjust="spacing" textLength="7" x="644.8152" y="557.0403">*</text><!--MD5=[c14cf0bd013c8a942e85dd951923bcfd]
link Member to BookItem--><path codeLine="17" d="M898.97,364.05 C801.45,383.2 556.06,431.37 450.05,452.17 " fill="none" id="Member-to-BookItem" style="stroke:#556B2F;stroke-width:1.0;stroke-dasharray:7.0,7.0;"/><polygon fill="#556B2F" points="445.11,453.14,454.7148,455.3188,450.0151,452.1704,453.1635,447.4706,445.11,453.14" style="stroke:#556B2F;stroke-width:1.0;"/><!--MD5=[3abb4b270b51bc2a007a6f014dd1a5c5]
link Librarian to User--><path codeLine="19" d="M620.65,271.31 C648.16,307.65 701.59,378.23 735.16,422.59 " fill="none" id="Librarian-to-User" style="stroke:#556B2F;stroke-width:1.0;"/><polygon fill="none" points="740.89,418.55,747.38,438.72,729.72,427,740.89,418.55" style="stroke:#556B2F;stroke-width:1.0;"/><!--MD5=[616dfa3fe95d256dd11b94bc2f4eed34]
link Librarian to BookLending--><path codeLine="20" d="M601.42,271.16 C597.48,328.8 587.24,478.61 582.95,541.52 " fill="none" id="Librarian-to-BookLending" style="stroke:#556B2F;stroke-width:1.0;stroke-dasharray:7.0,7.0;"/><polygon fill="#556B2F" points="582.6,546.62,587.208,537.9156,582.943,541.6318,579.2269,537.3668,582.6,546.62" style="stroke:#556B2F;stroke-width:1.0;"/><!--MD5=[7859152f462dd0a24417713b9db8aed1]
link Librarian to BookItem--><path codeLine="21" d="M576.26,271.21 C557.95,287.45 533.39,309.92 513,331 C479.76,365.36 444.17,407.64 422,434.7 " fill="none" id="Librarian-to-BookItem" style="stroke:#556B2F;stroke-width:1.0;stroke-dasharray:7.0,7.0;"/><polygon fill="#556B2F" points="418.83,438.58,427.6276,434.1526,421.9985,434.7121,421.439,429.083,418.83,438.58" style="stroke:#556B2F;stroke-width:1.0;"/><!--MD5=[580efea94984ee7030b7eed5b6174b98]
link Librarian to Member--><path codeLine="22" d="M646.02,261.53 C709.66,281.55 828.4,318.9 893.81,339.47 " fill="none" id="Librarian-to-Member" style="stroke:#556B2F;stroke-width:1.0;stroke-dasharray:7.0,7.0;"/><polygon fill="#556B2F" points="898.81,341.05,891.4295,334.5287,894.0414,339.5464,889.0237,342.1584,898.81,341.05" style="stroke:#556B2F;stroke-width:1.0;"/><!--MD5=[5212775db1763493fea1395c97914a1e]
@startuml
!include SkinParamClass.iuml

Library      *- - Catalog
Library      *-r- "*" Librarian
Library      *-r- "*" Member

Catalog      ..> Librarian
Catalog      *- - "*" Book

Book         *- - "*" BookItem
Book         "*" o- -o "*" Author

BookItem     *- - BookLending

Member       - -|> User
Member       *- - "*" BookLending
Member       ..> BookItem

Librarian    - -|> User
Librarian    ..> BookLending
Librarian    ..> BookItem
Librarian    ..> Member

@enduml

@startuml
skinparam object {
 ArrowColor DarkOliveGreen
 BackgroundColor White
 BorderColor CornflowerBlue
}

skinparam class {
 ArrowColor DarkOliveGreen
 BackgroundColor White
 BorderColor CornflowerBlue
}

skinparam nodesep 90

Library      *- - Catalog
Library      *-r- "*" Librarian
Library      *-r- "*" Member

Catalog      ..> Librarian
Catalog      *- - "*" Book

Book         *- - "*" BookItem
Book         "*" o- -o "*" Author

BookItem     *- - BookLending

Member       - -|> User
Member       *- - "*" BookLending
Member       ..> BookItem

Librarian    - -|> User
Librarian    ..> BookLending
Librarian    ..> BookItem
Librarian    ..> Member

@enduml

PlantUML version 1.2021.16(Wed Dec 08 19:25:22 IST 2021)
(GPL source distribution)
Java Runtime: OpenJDK Runtime Environment
JVM: OpenJDK 64-Bit Server VM
Default Encoding: UTF-8
Language: en
Country: null
--></g></svg>