<?xml version="1.0" encoding="UTF-8" standalone="no"?><svg xmlns="http://www.w3.org/2000/svg" xmlns:xlink="http://www.w3.org/1999/xlink" contentScriptType="application/ecmascript" contentStyleType="text/css" height="501px" preserveAspectRatio="none" style="width:1354px;height:501px;background:#FFFFFF;" version="1.1" viewBox="0 0 1354 501" width="1354px" zoomAndPan="magnify"><defs><filter height="300%" id="f1588huf3nkmg" width="300%" x="-1" y="-1"><feGaussianBlur result="blurOut" stdDeviation="2.0"/><feColorMatrix in="blurOut" result="blurOut2" type="matrix" values="0 0 0 0 0 0 0 0 0 0 0 0 0 0 0 0 0 0 .4 0"/><feOffset dx="4.0" dy="4.0" in="blurOut2" result="blurOut3"/><feBlend in="SourceGraphic" in2="blurOut3" mode="normal"/></filter></defs><g><!--MD5=[85613b3ddf77b6211cc1269bfb81dbf1]
class LibraryData--><rect fill="#FFFFFF" filter="url(#f1588huf3nkmg)" height="48" id="LibraryData" style="stroke:#6495ED;stroke-width:1.5;" width="103" x="112.5" y="7"/><ellipse cx="127.5" cy="23" fill="#ADD1B2" rx="11" ry="11" style="stroke:#6495ED;stroke-width:1.0;"/><path d="M130.4688,28.6406 Q129.8906,28.9375 129.25,29.0781 Q128.6094,29.2344 127.9063,29.2344 Q125.4063,29.2344 124.0781,27.5938 Q122.7656,25.9375 122.7656,22.8125 Q122.7656,19.6875 124.0781,18.0313 Q125.4063,16.375 127.9063,16.375 Q128.6094,16.375 129.25,16.5313 Q129.9063,16.6875 130.4688,16.9844 L130.4688,19.7031 Q129.8438,19.125 129.25,18.8594 Q128.6563,18.5781 128.0313,18.5781 Q126.6875,18.5781 126,19.6563 Q125.3125,20.7188 125.3125,22.8125 Q125.3125,24.9063 126,25.9844 Q126.6875,27.0469 128.0313,27.0469 Q128.6563,27.0469 129.25,26.7813 Q129.8438,26.5 130.4688,25.9219 L130.4688,28.6406 Z " fill="#000000"/><text fill="#000000" font-family="sans-serif" font-size="12" lengthAdjust="spacing" textLength="71" x="141.5" y="27.1543">LibraryData</text><line style="stroke:#6495ED;stroke-width:1.5;" x1="113.5" x2="214.5" y1="39" y2="39"/><line style="stroke:#6495ED;stroke-width:1.5;" x1="113.5" x2="214.5" y1="47" y2="47"/><!--MD5=[d16e34ece3e51578c56662434aff7589]
class CatalogData--><rect fill="#FFFFFF" filter="url(#f1588huf3nkmg)" height="48" id="CatalogData" style="stroke:#6495ED;stroke-width:1.5;" width="110" x="209" y="115"/><ellipse cx="224" cy="131" fill="#ADD1B2" rx="11" ry="11" style="stroke:#6495ED;stroke-width:1.0;"/><path d="M226.9688,136.6406 Q226.3906,136.9375 225.75,137.0781 Q225.1094,137.2344 224.4063,137.2344 Q221.9063,137.2344 220.5781,135.5938 Q219.2656,133.9375 219.2656,130.8125 Q219.2656,127.6875 220.5781,126.0313 Q221.9063,124.375 224.4063,124.375 Q225.1094,124.375 225.75,124.5313 Q226.4063,124.6875 226.9688,124.9844 L226.9688,127.7031 Q226.3438,127.125 225.75,126.8594 Q225.1563,126.5781 224.5313,126.5781 Q223.1875,126.5781 222.5,127.6563 Q221.8125,128.7188 221.8125,130.8125 Q221.8125,132.9063 222.5,133.9844 Q223.1875,135.0469 224.5313,135.0469 Q225.1563,135.0469 225.75,134.7813 Q226.3438,134.5 226.9688,133.9219 L226.9688,136.6406 Z " fill="#000000"/><text fill="#000000" font-family="sans-serif" font-size="12" lengthAdjust="spacing" textLength="78" x="238" y="135.1543">CatalogData</text><line style="stroke:#6495ED;stroke-width:1.5;" x1="210" x2="318" y1="147" y2="147"/><line style="stroke:#6495ED;stroke-width:1.5;" x1="210" x2="318" y1="155" y2="155"/><!--MD5=[ff4189209e0afda60305a18801ab137e]
class LibrarianData--><rect fill="#FFFFFF" filter="url(#f1588huf3nkmg)" height="48" id="LibrarianData" style="stroke:#6495ED;stroke-width:1.5;" width="116" x="306" y="7"/><ellipse cx="321" cy="23" fill="#ADD1B2" rx="11" ry="11" style="stroke:#6495ED;stroke-width:1.0;"/><path d="M323.9688,28.6406 Q323.3906,28.9375 322.75,29.0781 Q322.1094,29.2344 321.4063,29.2344 Q318.9063,29.2344 317.5781,27.5938 Q316.2656,25.9375 316.2656,22.8125 Q316.2656,19.6875 317.5781,18.0313 Q318.9063,16.375 321.4063,16.375 Q322.1094,16.375 322.75,16.5313 Q323.4063,16.6875 323.9688,16.9844 L323.9688,19.7031 Q323.3438,19.125 322.75,18.8594 Q322.1563,18.5781 321.5313,18.5781 Q320.1875,18.5781 319.5,19.6563 Q318.8125,20.7188 318.8125,22.8125 Q318.8125,24.9063 319.5,25.9844 Q320.1875,27.0469 321.5313,27.0469 Q322.1563,27.0469 322.75,26.7813 Q323.3438,26.5 323.9688,25.9219 L323.9688,28.6406 Z " fill="#000000"/><text fill="#000000" font-family="sans-serif" font-size="12" lengthAdjust="spacing" textLength="84" x="335" y="27.1543">LibrarianData</text><line style="stroke:#6495ED;stroke-width:1.5;" x1="307" x2="421" y1="39" y2="39"/><line style="stroke:#6495ED;stroke-width:1.5;" x1="307" x2="421" y1="47" y2="47"/><!--MD5=[af9b1c12a2ee5eb3d77a04c422a27041]
class MemberData--><rect fill="#FFFFFF" filter="url(#f1588huf3nkmg)" height="48" id="MemberData" style="stroke:#6495ED;stroke-width:1.5;" width="112" x="7" y="115"/><ellipse cx="22" cy="131" fill="#ADD1B2" rx="11" ry="11" style="stroke:#6495ED;stroke-width:1.0;"/><path d="M24.9688,136.6406 Q24.3906,136.9375 23.75,137.0781 Q23.1094,137.2344 22.4063,137.2344 Q19.9063,137.2344 18.5781,135.5938 Q17.2656,133.9375 17.2656,130.8125 Q17.2656,127.6875 18.5781,126.0313 Q19.9063,124.375 22.4063,124.375 Q23.1094,124.375 23.75,124.5313 Q24.4063,124.6875 24.9688,124.9844 L24.9688,127.7031 Q24.3438,127.125 23.75,126.8594 Q23.1563,126.5781 22.5313,126.5781 Q21.1875,126.5781 20.5,127.6563 Q19.8125,128.7188 19.8125,130.8125 Q19.8125,132.9063 20.5,133.9844 Q21.1875,135.0469 22.5313,135.0469 Q23.1563,135.0469 23.75,134.7813 Q24.3438,134.5 24.9688,133.9219 L24.9688,136.6406 Z " fill="#000000"/><text fill="#000000" font-family="sans-serif" font-size="12" lengthAdjust="spacing" textLength="80" x="36" y="135.1543">MemberData</text><line style="stroke:#6495ED;stroke-width:1.5;" x1="8" x2="118" y1="147" y2="147"/><line style="stroke:#6495ED;stroke-width:1.5;" x1="8" x2="118" y1="155" y2="155"/><!--MD5=[439646d728ab63266c031e8966319c59]
class CatalogCode--><rect fill="#FFFFFF" filter="url(#f1588huf3nkmg)" height="48" id="CatalogCode" style="stroke:#6495ED;stroke-width:1.5;" width="112" x="890" y="7"/><ellipse cx="905" cy="23" fill="#ADD1B2" rx="11" ry="11" style="stroke:#6495ED;stroke-width:1.0;"/><path d="M907.9688,28.6406 Q907.3906,28.9375 906.75,29.0781 Q906.1094,29.2344 905.4063,29.2344 Q902.9063,29.2344 901.5781,27.5938 Q900.2656,25.9375 900.2656,22.8125 Q900.2656,19.6875 901.5781,18.0313 Q902.9063,16.375 905.4063,16.375 Q906.1094,16.375 906.75,16.5313 Q907.4063,16.6875 907.9688,16.9844 L907.9688,19.7031 Q907.3438,19.125 906.75,18.8594 Q906.1563,18.5781 905.5313,18.5781 Q904.1875,18.5781 903.5,19.6563 Q902.8125,20.7188 902.8125,22.8125 Q902.8125,24.9063 903.5,25.9844 Q904.1875,27.0469 905.5313,27.0469 Q906.1563,27.0469 906.75,26.7813 Q907.3438,26.5 907.9688,25.9219 L907.9688,28.6406 Z " fill="#000000"/><text fill="#000000" font-family="sans-serif" font-size="12" lengthAdjust="spacing" textLength="80" x="919" y="27.1543">CatalogCode</text><line style="stroke:#6495ED;stroke-width:1.5;" x1="891" x2="1001" y1="39" y2="39"/><line style="stroke:#6495ED;stroke-width:1.5;" x1="891" x2="1001" y1="47" y2="47"/><!--MD5=[584d5b14aa6fa515864e3101ac27949a]
class LibrarianCode--><rect fill="#FFFFFF" filter="url(#f1588huf3nkmg)" height="48" id="LibrarianCode" style="stroke:#6495ED;stroke-width:1.5;" width="118" x="887" y="115"/><ellipse cx="902" cy="131" fill="#ADD1B2" rx="11" ry="11" style="stroke:#6495ED;stroke-width:1.0;"/><path d="M904.9688,136.6406 Q904.3906,136.9375 903.75,137.0781 Q903.1094,137.2344 902.4063,137.2344 Q899.9063,137.2344 898.5781,135.5938 Q897.2656,133.9375 897.2656,130.8125 Q897.2656,127.6875 898.5781,126.0313 Q899.9063,124.375 902.4063,124.375 Q903.1094,124.375 903.75,124.5313 Q904.4063,124.6875 904.9688,124.9844 L904.9688,127.7031 Q904.3438,127.125 903.75,126.8594 Q903.1563,126.5781 902.5313,126.5781 Q901.1875,126.5781 900.5,127.6563 Q899.8125,128.7188 899.8125,130.8125 Q899.8125,132.9063 900.5,133.9844 Q901.1875,135.0469 902.5313,135.0469 Q903.1563,135.0469 903.75,134.7813 Q904.3438,134.5 904.9688,133.9219 L904.9688,136.6406 Z " fill="#000000"/><text fill="#000000" font-family="sans-serif" font-size="12" lengthAdjust="spacing" textLength="86" x="916" y="135.1543">LibrarianCode</text><line style="stroke:#6495ED;stroke-width:1.5;" x1="888" x2="1004" y1="147" y2="147"/><line style="stroke:#6495ED;stroke-width:1.5;" x1="888" x2="1004" y1="155" y2="155"/><!--MD5=[e1f55edb7cf672ca05938a0f20056ac0]
class BookData--><rect fill="#FFFFFF" filter="url(#f1588huf3nkmg)" height="48" id="BookData" style="stroke:#6495ED;stroke-width:1.5;" width="93" x="217.5" y="223"/><ellipse cx="232.5" cy="239" fill="#ADD1B2" rx="11" ry="11" style="stroke:#6495ED;stroke-width:1.0;"/><path d="M235.4688,244.6406 Q234.8906,244.9375 234.25,245.0781 Q233.6094,245.2344 232.9063,245.2344 Q230.4063,245.2344 229.0781,243.5938 Q227.7656,241.9375 227.7656,238.8125 Q227.7656,235.6875 229.0781,234.0313 Q230.4063,232.375 232.9063,232.375 Q233.6094,232.375 234.25,232.5313 Q234.9063,232.6875 235.4688,232.9844 L235.4688,235.7031 Q234.8438,235.125 234.25,234.8594 Q233.6563,234.5781 233.0313,234.5781 Q231.6875,234.5781 231,235.6563 Q230.3125,236.7188 230.3125,238.8125 Q230.3125,240.9063 231,241.9844 Q231.6875,243.0469 233.0313,243.0469 Q233.6563,243.0469 234.25,242.7813 Q234.8438,242.5 235.4688,241.9219 L235.4688,244.6406 Z " fill="#000000"/><text fill="#000000" font-family="sans-serif" font-size="12" lengthAdjust="spacing" textLength="61" x="246.5" y="243.1543">BookData</text><line style="stroke:#6495ED;stroke-width:1.5;" x1="218.5" x2="309.5" y1="255" y2="255"/><line style="stroke:#6495ED;stroke-width:1.5;" x1="218.5" x2="309.5" y1="263" y2="263"/><!--MD5=[1bf2ff1aa2793783eab793d025d3213f]
class BookItemData--><rect fill="#FFFFFF" filter="url(#f1588huf3nkmg)" height="48" id="BookItemData" style="stroke:#6495ED;stroke-width:1.5;" width="120" x="199" y="331"/><ellipse cx="214" cy="347" fill="#ADD1B2" rx="11" ry="11" style="stroke:#6495ED;stroke-width:1.0;"/><path d="M216.9688,352.6406 Q216.3906,352.9375 215.75,353.0781 Q215.1094,353.2344 214.4063,353.2344 Q211.9063,353.2344 210.5781,351.5938 Q209.2656,349.9375 209.2656,346.8125 Q209.2656,343.6875 210.5781,342.0313 Q211.9063,340.375 214.4063,340.375 Q215.1094,340.375 215.75,340.5313 Q216.4063,340.6875 216.9688,340.9844 L216.9688,343.7031 Q216.3438,343.125 215.75,342.8594 Q215.1563,342.5781 214.5313,342.5781 Q213.1875,342.5781 212.5,343.6563 Q211.8125,344.7188 211.8125,346.8125 Q211.8125,348.9063 212.5,349.9844 Q213.1875,351.0469 214.5313,351.0469 Q215.1563,351.0469 215.75,350.7813 Q216.3438,350.5 216.9688,349.9219 L216.9688,352.6406 Z " fill="#000000"/><text fill="#000000" font-family="sans-serif" font-size="12" lengthAdjust="spacing" textLength="88" x="228" y="351.1543">BookItemData</text><line style="stroke:#6495ED;stroke-width:1.5;" x1="200" x2="318" y1="363" y2="363"/><line style="stroke:#6495ED;stroke-width:1.5;" x1="200" x2="318" y1="371" y2="371"/><!--MD5=[5cdd9078037601a094ad3f4ca20a7500]
class AuthorData--><rect fill="#FFFFFF" filter="url(#f1588huf3nkmg)" height="48" id="AuthorData" style="stroke:#6495ED;stroke-width:1.5;" width="104" x="409" y="331"/><ellipse cx="424" cy="347" fill="#ADD1B2" rx="11" ry="11" style="stroke:#6495ED;stroke-width:1.0;"/><path d="M426.9688,352.6406 Q426.3906,352.9375 425.75,353.0781 Q425.1094,353.2344 424.4063,353.2344 Q421.9063,353.2344 420.5781,351.5938 Q419.2656,349.9375 419.2656,346.8125 Q419.2656,343.6875 420.5781,342.0313 Q421.9063,340.375 424.4063,340.375 Q425.1094,340.375 425.75,340.5313 Q426.4063,340.6875 426.9688,340.9844 L426.9688,343.7031 Q426.3438,343.125 425.75,342.8594 Q425.1563,342.5781 424.5313,342.5781 Q423.1875,342.5781 422.5,343.6563 Q421.8125,344.7188 421.8125,346.8125 Q421.8125,348.9063 422.5,349.9844 Q423.1875,351.0469 424.5313,351.0469 Q425.1563,351.0469 425.75,350.7813 Q426.3438,350.5 426.9688,349.9219 L426.9688,352.6406 Z " fill="#000000"/><text fill="#000000" font-family="sans-serif" font-size="12" lengthAdjust="spacing" textLength="72" x="438" y="351.1543">AuthorData</text><line style="stroke:#6495ED;stroke-width:1.5;" x1="410" x2="512" y1="363" y2="363"/><line style="stroke:#6495ED;stroke-width:1.5;" x1="410" x2="512" y1="371" y2="371"/><!--MD5=[bec8997432025d2f0f19d59da50ae111]
class BookLendingData--><rect fill="#FFFFFF" filter="url(#f1588huf3nkmg)" height="48" id="BookLendingData" style="stroke:#6495ED;stroke-width:1.5;" width="142" x="90" y="439"/><ellipse cx="105" cy="455" fill="#ADD1B2" rx="11" ry="11" style="stroke:#6495ED;stroke-width:1.0;"/><path d="M107.9688,460.6406 Q107.3906,460.9375 106.75,461.0781 Q106.1094,461.2344 105.4063,461.2344 Q102.9063,461.2344 101.5781,459.5938 Q100.2656,457.9375 100.2656,454.8125 Q100.2656,451.6875 101.5781,450.0313 Q102.9063,448.375 105.4063,448.375 Q106.1094,448.375 106.75,448.5313 Q107.4063,448.6875 107.9688,448.9844 L107.9688,451.7031 Q107.3438,451.125 106.75,450.8594 Q106.1563,450.5781 105.5313,450.5781 Q104.1875,450.5781 103.5,451.6563 Q102.8125,452.7188 102.8125,454.8125 Q102.8125,456.9063 103.5,457.9844 Q104.1875,459.0469 105.5313,459.0469 Q106.1563,459.0469 106.75,458.7813 Q107.3438,458.5 107.9688,457.9219 L107.9688,460.6406 Z " fill="#000000"/><text fill="#000000" font-family="sans-serif" font-size="12" lengthAdjust="spacing" textLength="110" x="119" y="459.1543">BookLendingData</text><line style="stroke:#6495ED;stroke-width:1.5;" x1="91" x2="231" y1="471" y2="471"/><line style="stroke:#6495ED;stroke-width:1.5;" x1="91" x2="231" y1="479" y2="479"/><!--MD5=[dc8a9b75b4f497878a8f9a315c321d9f]
class MemberCode--><rect fill="#FFFFFF" filter="url(#f1588huf3nkmg)" height="48" id="MemberCode" style="stroke:#6495ED;stroke-width:1.5;" width="114" x="780" y="223"/><ellipse cx="795" cy="239" fill="#ADD1B2" rx="11" ry="11" style="stroke:#6495ED;stroke-width:1.0;"/><path d="M797.9688,244.6406 Q797.3906,244.9375 796.75,245.0781 Q796.1094,245.2344 795.4063,245.2344 Q792.9063,245.2344 791.5781,243.5938 Q790.2656,241.9375 790.2656,238.8125 Q790.2656,235.6875 791.5781,234.0313 Q792.9063,232.375 795.4063,232.375 Q796.1094,232.375 796.75,232.5313 Q797.4063,232.6875 797.9688,232.9844 L797.9688,235.7031 Q797.3438,235.125 796.75,234.8594 Q796.1563,234.5781 795.5313,234.5781 Q794.1875,234.5781 793.5,235.6563 Q792.8125,236.7188 792.8125,238.8125 Q792.8125,240.9063 793.5,241.9844 Q794.1875,243.0469 795.5313,243.0469 Q796.1563,243.0469 796.75,242.7813 Q797.3438,242.5 797.9688,241.9219 L797.9688,244.6406 Z " fill="#000000"/><text fill="#000000" font-family="sans-serif" font-size="12" lengthAdjust="spacing" textLength="82" x="809" y="243.1543">MemberCode</text><line style="stroke:#6495ED;stroke-width:1.5;" x1="781" x2="893" y1="255" y2="255"/><line style="stroke:#6495ED;stroke-width:1.5;" x1="781" x2="893" y1="263" y2="263"/><!--MD5=[36e900a5a1b3c092f3e3e7eba3d8d5d2]
class UserCode--><rect fill="#FFFFFF" filter="url(#f1588huf3nkmg)" height="48" id="UserCode" style="stroke:#6495ED;stroke-width:1.5;" width="93" x="603.5" y="331"/><ellipse cx="618.5" cy="347" fill="#ADD1B2" rx="11" ry="11" style="stroke:#6495ED;stroke-width:1.0;"/><path d="M621.4688,352.6406 Q620.8906,352.9375 620.25,353.0781 Q619.6094,353.2344 618.9063,353.2344 Q616.4063,353.2344 615.0781,351.5938 Q613.7656,349.9375 613.7656,346.8125 Q613.7656,343.6875 615.0781,342.0313 Q616.4063,340.375 618.9063,340.375 Q619.6094,340.375 620.25,340.5313 Q620.9063,340.6875 621.4688,340.9844 L621.4688,343.7031 Q620.8438,343.125 620.25,342.8594 Q619.6563,342.5781 619.0313,342.5781 Q617.6875,342.5781 617,343.6563 Q616.3125,344.7188 616.3125,346.8125 Q616.3125,348.9063 617,349.9844 Q617.6875,351.0469 619.0313,351.0469 Q619.6563,351.0469 620.25,350.7813 Q620.8438,350.5 621.4688,349.9219 L621.4688,352.6406 Z " fill="#000000"/><text fill="#000000" font-family="sans-serif" font-size="12" lengthAdjust="spacing" textLength="61" x="632.5" y="351.1543">UserCode</text><line style="stroke:#6495ED;stroke-width:1.5;" x1="604.5" x2="695.5" y1="363" y2="363"/><line style="stroke:#6495ED;stroke-width:1.5;" x1="604.5" x2="695.5" y1="371" y2="371"/><!--MD5=[99878402f68a39d6f1ed06873c860315]
class BookItem--><rect fill="#FFFFFF" filter="url(#f1588huf3nkmg)" height="48" id="BookItem" style="stroke:#6495ED;stroke-width:1.5;" width="90" x="792" y="331"/><ellipse cx="807" cy="347" fill="#ADD1B2" rx="11" ry="11" style="stroke:#6495ED;stroke-width:1.0;"/><path d="M809.9688,352.6406 Q809.3906,352.9375 808.75,353.0781 Q808.1094,353.2344 807.4063,353.2344 Q804.9063,353.2344 803.5781,351.5938 Q802.2656,349.9375 802.2656,346.8125 Q802.2656,343.6875 803.5781,342.0313 Q804.9063,340.375 807.4063,340.375 Q808.1094,340.375 808.75,340.5313 Q809.4063,340.6875 809.9688,340.9844 L809.9688,343.7031 Q809.3438,343.125 808.75,342.8594 Q808.1563,342.5781 807.5313,342.5781 Q806.1875,342.5781 805.5,343.6563 Q804.8125,344.7188 804.8125,346.8125 Q804.8125,348.9063 805.5,349.9844 Q806.1875,351.0469 807.5313,351.0469 Q808.1563,351.0469 808.75,350.7813 Q809.3438,350.5 809.9688,349.9219 L809.9688,352.6406 Z " fill="#000000"/><text fill="#000000" font-family="sans-serif" font-size="12" lengthAdjust="spacing" textLength="58" x="821" y="351.1543">BookItem</text><line style="stroke:#6495ED;stroke-width:1.5;" x1="793" x2="881" y1="363" y2="363"/><line style="stroke:#6495ED;stroke-width:1.5;" x1="793" x2="881" y1="371" y2="371"/><!--MD5=[290f797214b2fc984a07e822ba88578f]
class BookLendingCode--><rect fill="#FFFFFF" filter="url(#f1588huf3nkmg)" height="48" id="BookLendingCode" style="stroke:#6495ED;stroke-width:1.5;" width="144" x="984" y="223"/><ellipse cx="999" cy="239" fill="#ADD1B2" rx="11" ry="11" style="stroke:#6495ED;stroke-width:1.0;"/><path d="M1001.9688,244.6406 Q1001.3906,244.9375 1000.75,245.0781 Q1000.1094,245.2344 999.4063,245.2344 Q996.9063,245.2344 995.5781,243.5938 Q994.2656,241.9375 994.2656,238.8125 Q994.2656,235.6875 995.5781,234.0313 Q996.9063,232.375 999.4063,232.375 Q1000.1094,232.375 1000.75,232.5313 Q1001.4063,232.6875 1001.9688,232.9844 L1001.9688,235.7031 Q1001.3438,235.125 1000.75,234.8594 Q1000.1563,234.5781 999.5313,234.5781 Q998.1875,234.5781 997.5,235.6563 Q996.8125,236.7188 996.8125,238.8125 Q996.8125,240.9063 997.5,241.9844 Q998.1875,243.0469 999.5313,243.0469 Q1000.1563,243.0469 1000.75,242.7813 Q1001.3438,242.5 1001.9688,241.9219 L1001.9688,244.6406 Z " fill="#000000"/><text fill="#000000" font-family="sans-serif" font-size="12" lengthAdjust="spacing" textLength="112" x="1013" y="243.1543">BookLendingCode</text><line style="stroke:#6495ED;stroke-width:1.5;" x1="985" x2="1127" y1="255" y2="255"/><line style="stroke:#6495ED;stroke-width:1.5;" x1="985" x2="1127" y1="263" y2="263"/><!--MD5=[0513754fd7d1c2db156042e4bb35e895]
class BookItemCode--><rect fill="#FFFFFF" filter="url(#f1588huf3nkmg)" height="48" id="BookItemCode" style="stroke:#6495ED;stroke-width:1.5;" width="122" x="1218" y="223"/><ellipse cx="1233" cy="239" fill="#ADD1B2" rx="11" ry="11" style="stroke:#6495ED;stroke-width:1.0;"/><path d="M1235.9688,244.6406 Q1235.3906,244.9375 1234.75,245.0781 Q1234.1094,245.2344 1233.4063,245.2344 Q1230.9063,245.2344 1229.5781,243.5938 Q1228.2656,241.9375 1228.2656,238.8125 Q1228.2656,235.6875 1229.5781,234.0313 Q1230.9063,232.375 1233.4063,232.375 Q1234.1094,232.375 1234.75,232.5313 Q1235.4063,232.6875 1235.9688,232.9844 L1235.9688,235.7031 Q1235.3438,235.125 1234.75,234.8594 Q1234.1563,234.5781 1233.5313,234.5781 Q1232.1875,234.5781 1231.5,235.6563 Q1230.8125,236.7188 1230.8125,238.8125 Q1230.8125,240.9063 1231.5,241.9844 Q1232.1875,243.0469 1233.5313,243.0469 Q1234.1563,243.0469 1234.75,242.7813 Q1235.3438,242.5 1235.9688,241.9219 L1235.9688,244.6406 Z " fill="#000000"/><text fill="#000000" font-family="sans-serif" font-size="12" lengthAdjust="spacing" textLength="90" x="1247" y="243.1543">BookItemCode</text><line style="stroke:#6495ED;stroke-width:1.5;" x1="1219" x2="1339" y1="255" y2="255"/><line style="stroke:#6495ED;stroke-width:1.5;" x1="1219" x2="1339" y1="263" y2="263"/><!--MD5=[e551594abe739c635709599a6bf98767]
reverse link LibraryData to CatalogData--><path codeLine="3" d="M194.78,64.63 C210.05,80.81 228.14,99.99 242,114.68 " fill="none" id="LibraryData-backto-CatalogData" style="stroke:#556B2F;stroke-width:1.0;"/><polygon fill="#556B2F" points="185.7,55,186.9104,62.1088,193.9379,63.7256,192.7275,56.6168,185.7,55" style="stroke:#556B2F;stroke-width:1.0;"/><!--MD5=[1750af50fdc21ed654d74f4291797ebc]
reverse link LibraryData to LibrarianData--><path codeLine="4" d="M228.59,31 C254.3,31 280.02,31 305.73,31 " fill="none" id="LibraryData-backto-LibrarianData" style="stroke:#556B2F;stroke-width:1.0;"/><polygon fill="#556B2F" points="215.56,31,221.56,35,227.56,31,221.56,27,215.56,31" style="stroke:#556B2F;stroke-width:1.0;"/><text fill="#000000" font-family="sans-serif" font-size="13" lengthAdjust="spacing" textLength="7" x="290.8157" y="27.1145">*</text><!--MD5=[319bbfebaf9cea2223ce6a56cdf06eb9]
reverse link LibraryData to MemberData--><path codeLine="5" d="M132.91,64.63 C117.49,80.81 99.22,99.99 85.22,114.68 " fill="none" id="LibraryData-backto-MemberData" style="stroke:#556B2F;stroke-width:1.0;"/><polygon fill="#556B2F" points="142.08,55,135.045,56.5841,133.8015,63.6871,140.8365,62.1031,142.08,55" style="stroke:#556B2F;stroke-width:1.0;"/><text fill="#000000" font-family="sans-serif" font-size="13" lengthAdjust="spacing" textLength="7" x="82.783" y="104.007">*</text><!--MD5=[50e6760be8ecd751afd618dd2f5378c6]
link CatalogCode to LibrarianCode--><path codeLine="7" d="M946,55 C946,71 946,92.45 946,109.53 " fill="none" id="CatalogCode-to-LibrarianCode" style="stroke:#556B2F;stroke-width:1.0;stroke-dasharray:7.0,7.0;"/><polygon fill="#556B2F" points="946,114.68,950,105.68,946,109.68,942,105.68,946,114.68" style="stroke:#556B2F;stroke-width:1.0;"/><!--MD5=[47115d34bccf02b96073612ab8fdc551]
reverse link CatalogData to BookData--><path codeLine="8" d="M264,176.34 C264,191.68 264,209.1 264,222.68 " fill="none" id="CatalogData-backto-BookData" style="stroke:#556B2F;stroke-width:1.0;"/><polygon fill="#556B2F" points="264,163,260,169,264,175,268,169,264,163" style="stroke:#556B2F;stroke-width:1.0;"/><text fill="#000000" font-family="sans-serif" font-size="13" lengthAdjust="spacing" textLength="7" x="256.1469" y="212.007">*</text><!--MD5=[054cabe7b38662c3676c6a2347467ae7]
reverse link BookData to BookItemData--><path codeLine="10" d="M262.29,284.34 C261.56,299.68 260.74,317.1 260.1,330.68 " fill="none" id="BookData-backto-BookItemData" style="stroke:#556B2F;stroke-width:1.0;"/><polygon fill="#556B2F" points="262.92,271,258.641,276.8043,262.353,282.9866,266.632,277.1823,262.92,271" style="stroke:#556B2F;stroke-width:1.0;"/><text fill="#000000" font-family="sans-serif" font-size="13" lengthAdjust="spacing" textLength="7" x="252.515" y="320.007">*</text><!--MD5=[a4dd8fc068cc01ac179386b022643d8c]
link BookData to AuthorData--><path codeLine="11" d="M317.3203,276.6806 C317.3203,276.6806 407.4352,325.1692 407.4352,325.1692 " fill="none" id="BookData-AuthorData" style="stroke:#556B2F;stroke-width:1.0;"/><polygon fill="#FFFFFF" points="418,330.86,414.6145,324.493,407.4352,325.1692,410.8207,331.5362,418,330.86" style="stroke:#556B2F;stroke-width:1.0;"/><polygon fill="#FFFFFF" points="306.75,271,310.1416,277.3637,317.3203,276.6806,313.9287,270.3168,306.75,271" style="stroke:#556B2F;stroke-width:1.0;"/><text fill="#000000" font-family="sans-serif" font-size="13" lengthAdjust="spacing" textLength="7" x="309.8078" y="291.1558">*</text><text fill="#000000" font-family="sans-serif" font-size="13" lengthAdjust="spacing" textLength="7" x="399.0844" y="319.8362">*</text><!--MD5=[58a674ae787fa3e92dacba7187c75ce0]
reverse link BookItemData to BookLendingData--><path codeLine="13" d="M228.84,388.63 C213.87,404.81 196.14,423.99 182.56,438.68 " fill="none" id="BookItemData-backto-BookLendingData" style="stroke:#556B2F;stroke-width:1.0;"/><polygon fill="#556B2F" points="237.74,379,230.7306,380.6935,229.5979,387.8151,236.6073,386.1216,237.74,379" style="stroke:#556B2F;stroke-width:1.0;"/><!--MD5=[02f437c6788b0635cf37d88b55217f0d]
link MemberCode to UserCode--><path codeLine="15" d="M796.42,271 C770.66,285.6 736.9,304.74 708.29,320.96 " fill="none" id="MemberCode-to-UserCode" style="stroke:#556B2F;stroke-width:1.0;"/><polygon fill="none" points="711.67,327.09,690.82,330.86,704.77,314.91,711.67,327.09" style="stroke:#556B2F;stroke-width:1.0;"/><!--MD5=[3640ca287c9d53854ac4290a2e77e0eb]
reverse link MemberData to BookLendingData--><path codeLine="16" d="M73.89,175.78 C94.11,242.22 136.94,382.94 153.88,438.62 " fill="none" id="MemberData-backto-BookLendingData" style="stroke:#556B2F;stroke-width:1.0;"/><polygon fill="#556B2F" points="70.05,163.16,67.9696,170.0645,73.5429,174.6404,75.6232,167.7359,70.05,163.16" style="stroke:#556B2F;stroke-width:1.0;"/><text fill="#000000" font-family="sans-serif" font-size="13" lengthAdjust="spacing" textLength="7" x="144.2914" y="427.9323">*</text><!--MD5=[6d0b6bf995ca2c74ba7c3f79ae9192ff]
link MemberCode to BookItem--><path codeLine="17" d="M837,271 C837,287 837,308.45 837,325.53 " fill="none" id="MemberCode-to-BookItem" style="stroke:#556B2F;stroke-width:1.0;stroke-dasharray:7.0,7.0;"/><polygon fill="#556B2F" points="837,330.68,841,321.68,837,325.68,833,321.68,837,330.68" style="stroke:#556B2F;stroke-width:1.0;"/><!--MD5=[34561448e9d5fb5e79d362e7c5cabd69]
link LibrarianCode to UserCode--><path codeLine="19" d="M886.79,152.79 C841.45,164.91 779.35,186.76 735,223 C705.49,247.11 682.76,284.24 668.26,312.82 " fill="none" id="LibrarianCode-to-UserCode" style="stroke:#556B2F;stroke-width:1.0;"/><polygon fill="none" points="674.51,315.97,659.56,330.98,661.89,309.91,674.51,315.97" style="stroke:#556B2F;stroke-width:1.0;"/><!--MD5=[9c1dde0160a90c888f67e3b65bb5d4a2]
link LibrarianCode to BookLendingCode--><path codeLine="20" d="M969.87,163 C986.9,179.42 1009.88,201.56 1027.82,218.84 " fill="none" id="LibrarianCode-to-BookLendingCode" style="stroke:#556B2F;stroke-width:1.0;stroke-dasharray:7.0,7.0;"/><polygon fill="#556B2F" points="1031.8,222.68,1028.0979,213.5534,1028.2008,219.2093,1022.5449,219.3122,1031.8,222.68" style="stroke:#556B2F;stroke-width:1.0;"/><!--MD5=[150d6ab0b8d51287c7a887240e648cae]
link LibrarianCode to BookItemCode--><path codeLine="21" d="M1005.15,158.83 C1063.41,177.37 1152.25,205.65 1212.83,224.94 " fill="none" id="LibrarianCode-to-BookItemCode" style="stroke:#556B2F;stroke-width:1.0;stroke-dasharray:7.0,7.0;"/><polygon fill="#556B2F" points="1217.87,226.54,1210.5073,219.9986,1213.1056,225.0234,1208.0807,227.6217,1217.87,226.54" style="stroke:#556B2F;stroke-width:1.0;"/><!--MD5=[e447a4116f1dbd1e18f0b49b86d55e1f]
link LibrarianCode to MemberCode--><path codeLine="22" d="M922.35,163 C905.47,179.42 882.7,201.56 864.92,218.84 " fill="none" id="LibrarianCode-to-MemberCode" style="stroke:#556B2F;stroke-width:1.0;stroke-dasharray:7.0,7.0;"/><polygon fill="#556B2F" points="860.98,222.68,870.2215,219.2748,864.5652,219.1948,864.6452,213.5385,860.98,222.68" style="stroke:#556B2F;stroke-width:1.0;"/><!--MD5=[86f557a00abed98e7d3e9911f2f3d398]
@startuml
!include SkinParamClass.iuml

LibraryData      *- - CatalogData
LibraryData      *-r- "*" LibrarianData
LibraryData      *-r- "*" MemberData

CatalogCode      ..> LibrarianCode
CatalogData      *- - "*" BookData

BookData         *- - "*" BookItemData
BookData         "*" o- -o "*" AuthorData

BookItemData     *- - BookLendingData

MemberCode       - -|> UserCode
MemberData      *- - "*" BookLendingData
MemberCode      ..> BookItem

LibrarianCode    - -|> UserCode
LibrarianCode    ..> BookLendingCode
LibrarianCode    ..> BookItemCode
LibrarianCode    ..> MemberCode

@enduml

@startuml
skinparam object {
 ArrowColor DarkOliveGreen
 BackgroundColor White
 BorderColor CornflowerBlue
}

skinparam class {
 ArrowColor DarkOliveGreen
 BackgroundColor White
 BorderColor CornflowerBlue
}

skinparam nodesep 90

LibraryData      *- - CatalogData
LibraryData      *-r- "*" LibrarianData
LibraryData      *-r- "*" MemberData

CatalogCode      ..> LibrarianCode
CatalogData      *- - "*" BookData

BookData         *- - "*" BookItemData
BookData         "*" o- -o "*" AuthorData

BookItemData     *- - BookLendingData

MemberCode       - -|> UserCode
MemberData      *- - "*" BookLendingData
MemberCode      ..> BookItem

LibrarianCode    - -|> UserCode
LibrarianCode    ..> BookLendingCode
LibrarianCode    ..> BookItemCode
LibrarianCode    ..> MemberCode

@enduml

PlantUML version 1.2021.16(Wed Dec 08 19:25:22 IST 2021)
(GPL source distribution)
Java Runtime: OpenJDK Runtime Environment
JVM: OpenJDK 64-Bit Server VM
Default Encoding: UTF-8
Language: en
Country: null
--></g></svg>